<svg xmlns="http://www.w3.org/2000/svg" viewBox="0 0 64 64">
  <rect x="2" y="2" width="60" height="60" rx="14" fill="#050b2a" />
  <path
    d="M21 17h20a5 5 0 0 1 5 5v20a5 5 0 0 1-5 5H21a5 5 0 0 1-5-5V22a5 5 0 0 1 5-5z"
    fill="#fff"
  />
  <rect x="20" y="30" width="2.8" height="4" rx="1.4" fill="#0d81b8" />
  <rect x="24.8" y="27.5" width="2.8" height="9" rx="1.4" fill="#0d81b8" />
  <rect x="29.6" y="23.5" width="2.8" height="17" rx="1.4" fill="#0d81b8" />
  <rect x="34.4" y="27.5" width="2.8" height="9" rx="1.4" fill="#0d81b8" />
  <rect x="39.2" y="30" width="2.8" height="4" rx="1.4" fill="#0d81b8" />
  <circle cx="47.5" cy="16.5" r="3.1" fill="#63f2ff" />
</svg>
